<?xml version="1.0" standalone="no"?>
<!DOCTYPE svg PUBLIC "-//W3C//DTD SVG 20010904//EN"
 "http://www.w3.org/TR/2001/REC-SVG-20010904/DTD/svg10.dtd">
<svg version="1.0" xmlns="http://www.w3.org/2000/svg"
 width="1292.000000pt" height="317.000000pt" viewBox="0 0 1292.000000 317.000000"
 preserveAspectRatio="xMidYMid meet">

<g transform="translate(0.000000,317.000000) scale(0.100000,-0.100000)"
fill="#000000" stroke="none">
<path d="M2128 3126 c-58 -17 -109 -34 -112 -37 -4 -3 23 -14 58 -23 36 -10
69 -23 74 -30 5 -6 17 -39 27 -74 10 -34 21 -59 25 -55 7 7 70 232 70 247 0
11 -32 5 -142 -28z"/>
<path d="M987 3126 c-424 -76 -780 -377 -917 -776 -58 -170 -76 -405 -45 -582
36 -208 141 -426 274 -569 l50 -54 37 37 37 36 -61 76 c-152 189 -228 387
-239 622 -9 199 24 359 112 534 103 206 269 368 480 471 612 298 1343 -51
1494 -713 10 -45 22 -107 25 -135 l5 -53 -537 0 -536 0 58 59 c40 40 57 65 53
75 -11 27 -29 18 -92 -44 l-61 -60 -33 34 c-34 35 -61 38 -61 7 0 -9 20 -37
45 -61 l45 -44 0 -993 0 -993 55 0 55 0 0 399 0 398 72 7 c217 22 431 112 617
259 35 28 74 51 85 52 14 0 21 7 21 20 1 11 28 54 61 96 142 178 222 366 254
592 l12 87 399 0 399 0 0 55 0 55 -400 0 c-313 0 -400 3 -400 13 0 6 -7 56
-15 110 -34 228 -139 448 -296 620 l-62 69 67 67 c36 36 66 74 66 84 0 34 -37
16 -104 -52 l-69 -70 -41 34 c-112 90 -273 167 -445 212 -120 31 -343 40 -464
19z m513 -1226 c0 -6 -7 -27 -15 -47 -20 -48 -19 -73 3 -73 20 0 45 43 56 98
l8 32 343 0 343 0 -5 -42 c-24 -217 -116 -435 -243 -579 l-48 -54 -24 23 c-13
12 -30 22 -36 22 -24 0 -25 -31 -2 -56 l23 -24 -23 -25 c-33 -35 -154 -117
-228 -154 -115 -58 -310 -111 -408 -111 -12 0 -14 52 -14 340 0 264 3 341 13
344 58 17 109 41 114 53 9 24 -17 32 -53 17 -18 -8 -43 -14 -54 -14 -19 0 -20
6 -20 130 l0 130 135 0 c86 0 135 -4 135 -10z"/>
<path d="M1317 1833 c-17 -16 -2 -43 56 -101 34 -34 70 -62 79 -62 38 0 27 26
-43 96 -74 75 -80 79 -92 67z"/>
<path d="M1586 1544 c-7 -20 119 -154 145 -154 38 0 25 30 -45 99 -74 73 -90
82 -100 55z"/>
<path d="M1725 2650 c-65 -65 -68 -71 -53 -86 16 -16 22 -12 87 51 70 67 89
105 53 105 -10 0 -49 -31 -87 -70z"/>
<path d="M1453 2378 c-39 -40 -69 -79 -66 -85 10 -27 43 -10 107 57 57 59 66
73 56 85 -7 8 -15 15 -19 15 -4 0 -38 -33 -78 -72z"/>
<path d="M4032 1703 l3 -668 115 0 115 0 3 307 2 307 353 3 c346 3 353 3 399
26 75 38 134 96 170 170 30 60 33 75 33 157 0 77 -4 98 -27 147 -37 79 -98
142 -177 181 l-66 32 -462 3 -463 3 2 -668z m894 411 c89 -42 85 -172 -6 -219
-24 -12 -85 -15 -340 -15 l-310 0 0 125 0 125 311 0 c267 0 316 -2 345 -16z"/>
<path d="M5420 1892 c0 -520 2 -543 57 -645 34 -62 117 -138 187 -171 82 -39
160 -46 524 -46 l332 0 0 120 0 120 -342 0 c-209 0 -358 4 -381 11 -47 13
-106 63 -123 106 -11 26 -14 131 -14 508 l0 475 -120 0 -120 0 0 -478z"/>
<path d="M9200 1943 l0 -426 -22 20 c-13 11 -221 172 -463 358 -242 186 -477
367 -522 402 l-83 64 0 -666 0 -666 118 3 117 3 5 417 5 417 538 -414 c297
-228 541 -415 543 -415 2 0 4 299 4 665 l0 665 -120 0 -120 0 0 -427z"/>
<path d="M10730 1950 c0 -231 -4 -420 -9 -420 -4 0 -251 187 -547 415 l-539
415 -3 -653 c-1 -358 0 -658 3 -665 3 -9 33 -12 117 -10 l113 3 5 419 5 418
505 -389 c278 -213 522 -401 543 -417 l37 -28 0 666 0 666 -115 0 -115 0 0
-420z"/>
<path d="M11160 1700 l0 -670 115 0 115 0 0 670 0 670 -115 0 -115 0 0 -670z"/>
<path d="M12155 2364 c-11 -2 -45 -9 -75 -15 -125 -25 -280 -122 -365 -227
-55 -69 -108 -174 -130 -262 -24 -93 -17 -281 14 -370 67 -195 229 -356 420
-420 100 -33 210 -41 556 -38 l320 3 3 118 3 117 -344 0 c-192 0 -368 5 -398
10 -181 35 -318 174 -350 358 -29 161 57 342 202 429 98 59 134 63 531 63
l358 0 0 120 0 120 -362 -1 c-200 -1 -372 -3 -383 -5z"/>
<path d="M7285 2309 c-15 -30 -47 -90 -70 -134 -23 -44 -136 -264 -250 -490
-114 -225 -234 -460 -266 -521 -33 -62 -59 -117 -59 -123 0 -8 38 -11 131 -9
l130 3 203 397 c111 219 204 399 206 402 3 2 79 -140 169 -317 90 -177 184
-359 208 -404 l45 -83 129 0 c71 0 129 3 129 6 0 5 -221 440 -380 749 -43 83
-123 240 -179 350 -55 110 -105 206 -110 214 -7 11 -16 1 -36 -40z"/>
<path d="M2140 982 c0 -20 130 -152 149 -152 7 0 14 7 18 16 4 11 -16 38 -63
85 -68 69 -104 86 -104 51z"/>
<path d="M2427 723 c-17 -16 -3 -43 52 -97 40 -40 65 -57 75 -53 28 11 18 31
-47 95 -64 64 -69 67 -80 55z"/>
<path d="M2619 620 l-24 -75 -73 -24 c-40 -12 -72 -24 -70 -26 5 -5 262 -74
265 -72 1 2 -15 64 -36 138 l-38 134 -24 -75z"/>
</g>
</svg>
